#!OML:ASF H:\Terrain\Patient Classification 1\Animal1\Tuesday\Animal1.ASF
:FULLY-SPECIFIED
:DEGREES
2914
root 9.80707 16.2517 -0.0325508 -1084.48 79.6434 -396.034
lowerback 32.1419 -1.26271 2.86051
upperback 3.955 -0.257942 -0.0123548
thorax -12.2605 -0.0912361 -1.48686
lowerneck 0.71452 3.02392 -3.9015
upperneck -37.3348 5.08086 -2.66678
head -12.5697 4.08443 -1.07937
rclavicle -1.59028e-014 -4.17448e-014
rhumerus -55.3816 10.4905 -98.3908
rradius 39.5837
rwrist -66.561
rhand 31.7162 -364.731
rfingers 7.12502
rthumb 55.2429 -22.6928
lclavicle -1.59028e-014 -4.17448e-014
lhumerus -49.8661 9.06783 85.4698
lradius 28.3442
lwrist 6.42738
lhand 64.5975 69.589
lfingers 7.12502
lthumb 74.9359 -339.735
rfemur -56.0193 9.12174 15.0588
rtibia 72.8998
rfoot 20.2462 -21.2272
rtoes 16.0216
lfemur -68.6621 6.11984 -41.195
ltibia 59.2395
lfoot 29.1981 -3.07566
ltoes 42.3994
2915
root 9.90512 16.2491 -0.03121 -1088.92 80.3686 -400.384
lowerback 32.1372 -1.62614 3.49993
upperback 3.91543 -0.522301 -0.19454
thorax -12.3195 -0.240495 -1.92359
lowerneck 0.994743 3.02815 -3.79518
upperneck -37.6946 5.24502 -2.31363
head -12.7945 4.11899 -1.00531
rclavicle 7.95139e-016 -1.03368e-014
rhumerus -54.8347 10.3015 -98.5147
rradius 38.9497
rwrist -65.5685
rhand 32.3784 -364.886
rfingers 7.12502
rthumb 55.8315 -22.4058
lclavicle 7.95139e-016 -1.03368e-014
lhumerus -50.0136 9.11242 84.9874
lradius 28.3033
lwrist 6.17293
lhand 64.2763 69.6096
lfingers 7.12502
lthumb 74.9567 -338.523
rfemur -57.2791 10.0656 14.6597
rtibia 72.9875
rfoot 18.4742 -21.8555
rtoes 18.9367
lfemur -68.0475 5.94613 -40.7935
ltibia 59.3544
lfoot 29.2448 -3.24638
ltoes 42.9247
2916
root 10.0053 16.2516 -0.0340197 -1093.23 81.1072 -404.436
lowerback 32.3319 -1.79371 3.85472
upperback 3.93237 -0.612849 -0.324848
thorax -12.3898 -0.295205 -2.21801
lowerneck 0.956966 2.89746 -3.40662
upperneck -37.6872 5.20461 -2.07243
head -12.7742 4.0254 -0.974205
rclavicle 2.3059e-014 1.07344e-014
rhumerus -54.1777 10.0326 -98.6183
rradius 38.3863
rwrist -64.8039
rhand 31.6312 -366.263
rfingers 7.12502
rthumb 55.1672 -24.2802
lclavicle 2.3059e-014 1.07344e-014
lhumerus -50.0002 8.61668 84.9651
lradius 28.3253
lwrist 6.38222
lhand 63.7393 69.6139
lfingers 7.12502
lthumb 74.9767 -336.52
rfemur -58.424 10.8674 14.1596
rtibia 73.0158
rfoot 17.8059 -21.9707
rtoes 19.9267
lfemur -67.1876 5.82543 -40.5875
ltibia 59.431
lfoot 29.1424 -3.99581
ltoes 42.5012
2917
root 10.1014 16.2405 -0.0401796 -1095.7 81.9323 -406.618
lowerback 32.5539 -1.98836 3.86373
upperback 3.9279 -0.868662 -0.54414
thorax -12.5079 -0.411699 -2.3563
lowerneck 0.617803 2.91098 -3.14478
upperneck -37.3266 5.3411 -1.87094
head -12.5423 4.02547 -0.931349
rclavicle 3.02153e-014 3.02153e-014
rhumerus -54.019 9.46588 -98.9452
rradius 38.1395
rwrist -63.2982
rhand 30.3047 -365.994
rfingers 7.12502
rthumb 53.9807 -24.8451
lclavicle 3.02153e-014 3.02153e-014
lhumerus -50.0845 8.40725 84.974
lradius 28.4938
lwrist 6.79301
lhand 62.7036 69.8283
lfingers 7.12502
lthumb 74.9624 -332.448
rfemur -59.7083 11.4583 13.2577
rtibia 73.032
rfoot 17.925 -21.8912
rtoes 19.5608
lfemur -66.3195 5.77239 -40.9717
ltibia 59.4847
lfoot 28.719 -5.93417
ltoes 39.9485
2918
root 10.1946 16.2111 -0.044616 -1098.98 82.6545 -409.827
lowerback 32.5658 -1.80577 3.18858
upperback 3.84759 -0.792114 -0.00203422
thorax -12.5825 -0.340031 -1.44057
lowerneck 0.913122 3.00785 -3.47776
upperneck -37.3498 5.31053 -2.22186
head -12.6144 4.09507 -1.01634
rclavicle -4.37326e-014 -1.07344e-014
rhumerus -54.3036 9.58465 -98.5902
rradius 38.1476
rwrist -61.8609
rhand 28.3633 -363.912
rfingers 7.12502
rthumb 52.2296 -23.8798
lclavicle -4.37326e-014 -1.07344e-014
lhumerus -50.1162 9.02661 85.8313
lradius 28.4178
lwrist 6.79299
lhand 61.5156 69.6915
lfingers 7.12502
lthumb 74.8604 -328.194
rfemur -61.2796 11.9842 12.4125
rtibia 72.9521
rfoot 16.9907 -22.4031
rtoes 20.6892
lfemur -65.7873 5.64729 -41.3047
ltibia 59.5683
lfoot 28.0571 -8.8491
ltoes 34.6773
2919
root 10.2866 16.1909 -0.0513068 -1104.66 83.2095 -415.425
lowerback 32.6295 -1.73829 3.15446
upperback 3.72172 -0.687833 0.193554
thorax -12.7441 -0.292502 -1.25236
lowerneck 1.87457 2.98635 -3.22221
upperneck -37.8909 5.17091 -2.57521
head -13.0309 4.04526 -1.2384
rclavicle 3.18055e-015 -7.95139e-015
rhumerus -53.5567 8.07774 -97.9989
rradius 37.1016
rwrist -59.6886
rhand 28.5094 -363.164
rfingers 7.12502
rthumb 52.362 -23.0519
lclavicle 3.18055e-015 -7.95139e-015
lhumerus -50.3362 8.28454 86.5261
lradius 28.5871
lwrist 7.56625
lhand 61.2914 69.5193
lfingers 7.12502
lthumb 74.8311 -327.545
rfemur -62.8605 12.5862 11.7347
rtibia 72.7449
rfoot 14.5275 -23.66
rtoes 25.3901
lfemur -65.3432 5.49612 -41.2201
ltibia 59.7118
lfoot 28.204 -8.49181
ltoes 36.5964
2920
root 10.3836 16.1828 -0.0607755 -1109.45 83.8782 -419.898
lowerback 32.8476 -1.53541 2.72666
upperback 3.6457 -0.539363 0.383142
thorax -12.9108 -0.203523 -0.875945
lowerneck 3.02136 2.94725 -2.55638
upperneck -38.5091 4.94893 -3.25972
head -13.5055 3.94234 -1.66765
rclavicle -1.27222e-014 -2.3059e-014
rhumerus -54.201 9.80111 -97.7526
rradius 38.3274
rwrist -62.094
rhand 31.5425 -365.309
rfingers 7.12502
rthumb 55.0881 -23.3837
lclavicle -1.27222e-014 -2.3059e-014
lhumerus -50.7071 7.33936 87.179
lradius 28.8306
lwrist 8.16456
lhand 61.843 69.2582
lfingers 7.12502
lthumb 74.8976 -329.831
rfemur -64.2267 13.1341 10.7102
rtibia 72.3842
rfoot 12.6143 -24.0764
rtoes 25.9583
lfemur -64.5182 5.33824 -41.3151
ltibia 59.8821
lfoot 28.5383 -7.72384
ltoes 39.2935
2921
root 10.4866 16.1685 -0.074507 -1114.67 84.6766 -424.836
lowerback 33.1152 -1.45197 2.27315
upperback 3.56694 -0.562562 0.494158
thorax -13.1086 -0.189904 -0.501091
lowerneck 3.11265 2.97504 -1.80338
upperneck -38.3923 4.85033 -4.00485
head -13.4161 3.88424 -2.07989
rclavicle -3.81667e-014 -4.33351e-014
rhumerus -54.7933 10.3551 -97.2423
rradius 39.1987
rwrist -62.9752
rhand 33.7 -366.791
rfingers 7.12502
rthumb 56.9991 -23.3776
lclavicle -3.81667e-014 -4.33351e-014
lhumerus -50.9742 7.09752 87.4557
lradius 28.9967
lwrist 8.21604
lhand 62.1079 69.0175
lfingers 7.12502
lthumb 74.9226 -331.05
rfemur -65.5226 13.416 9.54423
rtibia 71.8487
rfoot 11.7073 -23.5671
rtoes 23.1506
lfemur -63.564 4.87236 -41.49
ltibia 60.0908
lfoot 28.3556 -9.78431
ltoes 36.4559
2922
root 10.5929 16.1537 -0.0929145 -1125.26 85.1973 -435.333
lowerback 33.2503 -1.52676 2.37758
upperback 3.48253 -0.590483 0.631088
thorax -13.2605 -0.204727 -0.39688
lowerneck 1.86656 2.71597 -2.7893
upperneck -37.4952 4.6971 -2.99244
head -12.8199 3.82151 -1.40708
rclavicle -3.97569e-016 -3.37934e-014
rhumerus -55.1967 10.6808 -96.9935
rradius 39.8154
rwrist -63.3237
rhand 33.887 -367.505
rfingers 7.12502
rthumb 57.1635 -23.9545
lclavicle -3.97569e-016 -3.37934e-014
lhumerus -51.1607 6.56774 87.9218
lradius 29.3504
lwrist 8.92146
lhand 61.9396 69.5584
lfingers 7.12502
lthumb 74.9072 -329.887
rfemur -66.867 13.5156 8.75596
rtibia 71.2171
rfoot 9.70175 -23.5653
rtoes 28.4236
lfemur -62.9121 4.27598 -41.2827
ltibia 60.4123
lfoot 27.947 -10.0694
ltoes 35.9251
2923
root 10.7057 16.1616 -0.111087 -1138.68 85.1744 -448.692
lowerback 33.1299 -1.54981 2.64918
upperback 3.45917 -0.490254 0.848343
thorax -13.2346 -0.168051 -0.350503
lowerneck 1.83677 2.3786 -3.64756
upperneck -37.7633 4.42488 -2.0826
head -12.9901 3.72902 -0.886714
rclavicle 5.92378e-014 8.3092e-014
rhumerus -55.3961 10.6652 -96.7554
rradius 40.2276
rwrist -63.4959
rhand 33.1128 -368.026
rfingers 7.12502
rthumb 56.4816 -25.0354
lclavicle 5.92378e-014 8.3092e-014
lhumerus -51.4834 5.18783 88.7983
lradius 29.9234
lwrist 10.6739
lhand 61.5934 70.096
lfingers 7.12502
lthumb 74.8698 -328.074
rfemur -67.9762 13.8458 8.27099
rtibia 70.3982
rfoot 6.65921 -23.8437
rtoes 36.3187
lfemur -62.687 3.78823 -40.4972
ltibia 60.7462
lfoot 28.1222 -5.53454
ltoes 42.6775
2924
root 10.8251 16.1448 -0.121252 -1149.39 84.8971 -459.193
lowerback 33.059 -1.65214 2.76002
upperback 3.45879 -0.552578 1.02002
thorax -13.2061 -0.195527 -0.200696
lowerneck 1.85433 2.6079 -3.52091
upperneck -37.6401 4.74564 -2.23432
head -12.9327 3.87329 -1.00024
rclavicle -2.46493e-014 1.39149e-014
rhumerus -55.5776 11.2068 -96.9435
rradius 40.5254
rwrist -63.7115
rhand 31.8773 -368.322
rfingers 7.12502
rthumb 55.3863 -26.1777
lclavicle -2.46493e-014 1.39149e-014
lhumerus -50.9718 8.38347 87.5412
lradius 28.7181
lwrist 7.51532
lhand 62.2122 69.0288
lfingers 7.12502
lthumb 74.9312 -331.424
rfemur -68.9388 14.4808 7.74646
rtibia 69.2644
rfoot 4.80277 -23.0317
rtoes 39.0031
lfemur -61.9712 3.78485 -40.0954
ltibia 60.8835
lfoot 27.5538 -4.29597
ltoes 43.985
2925
root 10.9524 16.0743 -0.12835 -1158.17 84.7689 -467.56
lowerback 33.3047 -1.81403 2.78254
upperback 3.45477 -0.723981 1.06162
thorax -13.3146 -0.268432 -0.0959137
lowerneck 1.32353 2.68101 -3.96574
upperneck -37.0768 4.91024 -1.91963
head -12.6014 3.95952 -0.780563
rclavicle 9.93923e-015 2.5842e-014
rhumerus -55.6023 11.7091 -97.0914
rradius 40.5431
rwrist -63.5063
rhand 30.9068 -368.293
rfingers 7.12502
rthumb 54.5203 -26.7727
lclavicle 9.93923e-015 2.5842e-014
lhumerus -50.5605 13.3964 85.3532
lradius 27.3015
lwrist 2.2847
lhand 64.024 68.4134
lfingers 7.12502
lthumb 74.9685 -338.781
rfemur -70.1149 14.9059 7.11225
rtibia 68.0916
rfoot 7.11749 -20.4869
rtoes 32.6943
lfemur -60.766 3.8678 -40.2506
ltibia 60.9726
lfoot 26.5563 -7.61581
ltoes 39.4908
2926
root 11.0741 16.1555 -0.186095 -1168.89 84.7341 -477.863
lowerback 33.5706 -1.88904 2.83545
upperback 3.45464 -0.781723 1.03359
thorax -13.4252 -0.292938 -0.128345
lowerneck 1.15091 2.57475 -4.00474
upperneck -36.8773 4.76107 -1.92625
head -12.4777 3.89996 -0.748805
rclavicle -2.18663e-014 -5.52621e-014
rhumerus -55.5365 11.5726 -96.8423
rradius 40.4471
rwrist -63.07
rhand 28.3071 -368.818
rfingers 7.12502
rthumb 52.1787 -28.817
lclavicle -2.18663e-014 -5.52621e-014
lhumerus -51.8052 8.43618 87.5999
lradius 29.9574
lwrist 7.55373
lhand 65.4107 70.0136
lfingers 7.12502
lthumb 74.8533 -342.308
rfemur -70.3508 14.7254 6.47922
rtibia 65.8251
rfoot 11.7164 -16.4305
rtoes 16.5746
lfemur -59.4271 3.19112 -39.8629
ltibia 60.6506
lfoot 26.7935 -7.04868
ltoes 42.7692
2927
root 11.1944 16.1201 -0.203014 -1179.47 84.2654 -488.36
lowerback 33.4834 -1.90781 2.90915
upperback 3.37051 -0.762446 1.15419
thorax -13.4853 -0.286646 -0.0459318
lowerneck 1.31685 2.50814 -3.94574
upperneck -36.9553 4.66154 -1.99498
head -12.54 3.86338 -0.784249
rclavicle -1.78906e-014 9.93923e-015
rhumerus -55.7807 11.5787 -96.6059
rradius 40.7702
rwrist -63.2493
rhand 32.2323 -367.88
rfingers 7.12502
rthumb 55.7019 -25.4986
lclavicle -1.78906e-014 9.93923e-015
lhumerus -51.8253 9.09371 87.4752
lradius 29.8787
lwrist 6.71685
lhand 65.0614 69.0739
lfingers 7.12502
lthumb 74.894 -341.964
rfemur -71.3619 14.655 5.94432
rtibia 63.9932
rfoot 14.0919 -14.6079
rtoes 9.19464
lfemur -58.5492 2.5922 -39.621
ltibia 60.5355
lfoot 26.5801 -7.44059
ltoes 42.5531
2928
root 11.3421 16.1262 -0.252011 -1186.14 83.8121 -494.403
lowerback 33.8039 -1.97236 3.04323
upperback 3.37238 -0.769799 1.14898
thorax -13.6146 -0.292385 -0.116956
lowerneck 1.3432 2.4843 -4.0119
upperneck -36.7948 4.64265 -1.91803
head -12.4793 3.85057 -0.736127
rclavicle -2.66371e-014 -4.65156e-014
rhumerus -56.2483 11.8664 -96.646
rradius 41.2889
rwrist -63.775
rhand 33.8017 -367.487
rfingers 7.12502
rthumb 57.0885 -23.9987
lclavicle -2.66371e-014 -4.65156e-014
lhumerus -51.8452 11.2535 86.7955
lradius 29.2268
lwrist 4.85941
lhand 64.2494 68.8007
lfingers 7.12502
lthumb 74.9582 -339.232
rfemur -71.334 14.934 5.22832
rtibia 61.6098
rfoot 12.3998 -16.332
rtoes 20.3465
lfemur -56.6366 2.23661 -39.5196
ltibia 59.9474
lfoot 26.04 -7.99515
ltoes 41.5509
